<svg width="139" height="34" viewBox="0 0 139 34" fill="none" xmlns="http://www.w3.org/2000/svg">
<path d="M49.0953 10.6128H53.0136L56.3374 18.7179H56.4909L59.8147 10.6128H63.733V23.7037H60.6521V15.6625H60.5434L57.3985 23.6206H55.4298L52.2849 15.6177H52.1762V23.7037H49.0953V10.6128ZM65.7066 23.7037V13.8855H68.8323V23.7037H65.7066ZM67.2726 12.7413C66.8337 12.7413 66.4566 12.5964 66.1412 12.3067C65.8259 12.0126 65.6682 11.6589 65.6682 11.2456C65.6682 10.8365 65.8259 10.4871 66.1412 10.1973C66.4566 9.90325 66.8337 9.75623 67.2726 9.75623C67.7158 9.75623 68.093 9.90325 68.404 10.1973C68.7194 10.4871 68.877 10.8365 68.877 11.2456C68.877 11.6589 68.7194 12.0126 68.404 12.3067C68.093 12.5964 67.7158 12.7413 67.2726 12.7413ZM70.8218 27.3855V13.8855H73.9156V15.5666H74.0115C74.1393 15.2683 74.3204 14.9807 74.5548 14.7037C74.7934 14.4267 75.096 14.2008 75.4624 14.0261C75.8332 13.8471 76.2764 13.7577 76.792 13.7577C77.4738 13.7577 78.1109 13.9366 78.7032 14.2946C79.2998 14.6525 79.7813 15.2044 80.1478 15.9501C80.5143 16.6959 80.6975 17.6461 80.6975 18.801C80.6975 19.9132 80.5207 20.8443 80.167 21.5943C79.8176 22.3443 79.3445 22.9068 78.748 23.2818C78.1556 23.6568 77.4972 23.8443 76.7728 23.8443C76.2785 23.8443 75.8502 23.7633 75.488 23.6014C75.1258 23.4395 74.8211 23.2264 74.574 22.9622C74.3311 22.698 74.1436 22.4146 74.0115 22.1121H73.9475V27.3855H70.8218ZM73.8836 18.7946C73.8836 19.323 73.9539 19.7832 74.0945 20.1753C74.2394 20.5673 74.4461 20.872 74.7146 21.0893C74.9873 21.3024 75.3133 21.4089 75.6926 21.4089C76.0761 21.4089 76.4021 21.3024 76.6705 21.0893C76.939 20.872 77.1414 20.5673 77.2778 20.1753C77.4184 19.7832 77.4887 19.323 77.4887 18.7946C77.4887 18.2662 77.4184 17.8081 77.2778 17.4203C77.1414 17.0325 76.939 16.7321 76.6705 16.519C76.4063 16.3059 76.0803 16.1994 75.6926 16.1994C75.309 16.1994 74.983 16.3038 74.7146 16.5126C74.4461 16.7214 74.2394 17.0197 74.0945 17.4075C73.9539 17.7953 73.8836 18.2577 73.8836 18.7946ZM90.9072 16.8834L88.0372 16.9601C88.0074 16.7555 87.9264 16.5744 87.7943 16.4167C87.6622 16.2548 87.4896 16.1291 87.2765 16.0396C87.0677 15.9459 86.8248 15.899 86.5479 15.899C86.1856 15.899 85.8767 15.9714 85.621 16.1163C85.3696 16.2612 85.246 16.4572 85.2503 16.7044C85.246 16.8961 85.3227 17.0623 85.4804 17.203C85.6423 17.3436 85.93 17.4565 86.3433 17.5417L88.2354 17.8997C89.2155 18.0872 89.9442 18.3983 90.4214 18.8329C90.903 19.2676 91.1459 19.8429 91.1501 20.5588C91.1459 21.2321 90.9456 21.818 90.5493 22.3166C90.1572 22.8152 89.6203 23.203 88.9385 23.48C88.2567 23.7527 87.4768 23.889 86.599 23.889C85.197 23.889 84.0912 23.6014 83.2815 23.0261C82.4761 22.4466 82.0159 21.671 81.9008 20.6994L84.9882 20.6227C85.0564 20.9807 85.2332 21.2534 85.5187 21.4409C85.8042 21.6284 86.1686 21.7221 86.6118 21.7221C87.0123 21.7221 87.3383 21.6476 87.5898 21.4984C87.8412 21.3493 87.969 21.1511 87.9733 20.904C87.969 20.6824 87.871 20.5055 87.6792 20.3734C87.4875 20.2371 87.1871 20.1305 86.778 20.0538L85.0649 19.7278C84.0805 19.5488 83.3476 19.2186 82.866 18.7371C82.3845 18.2513 82.1459 17.6334 82.1501 16.8834C82.1459 16.2271 82.3206 15.6667 82.6743 15.2023C83.028 14.7335 83.5308 14.3755 84.1828 14.1284C84.8348 13.8812 85.604 13.7577 86.4903 13.7577C87.8199 13.7577 88.8682 14.0368 89.6352 14.595C90.4023 15.149 90.8263 15.9118 90.9072 16.8834ZM104.572 15.3557H101.376C101.333 15.0275 101.246 14.7314 101.114 14.4672C100.982 14.203 100.807 13.9771 100.59 13.7896C100.372 13.6021 100.114 13.4594 99.8161 13.3613C99.5221 13.2591 99.1961 13.2079 98.8382 13.2079C98.2032 13.2079 97.6556 13.3635 97.1954 13.6746C96.7394 13.9856 96.3879 14.4352 96.1407 15.0233C95.8978 15.6113 95.7764 16.323 95.7764 17.1582C95.7764 18.0275 95.8999 18.7562 96.1471 19.3443C96.3985 19.9281 96.7501 20.3692 97.2018 20.6675C97.6578 20.9615 98.1968 21.1085 98.819 21.1085C99.1684 21.1085 99.4859 21.0638 99.7714 20.9743C100.061 20.8848 100.315 20.7548 100.532 20.5844C100.754 20.4096 100.935 20.1987 101.075 19.9515C101.22 19.7001 101.32 19.4167 101.376 19.1014L104.572 19.1206C104.516 19.7001 104.348 20.2711 104.067 20.8336C103.79 21.3961 103.408 21.9096 102.923 22.3741C102.437 22.8344 101.845 23.2008 101.146 23.4736C100.451 23.7463 99.6542 23.8827 98.7551 23.8827C97.5704 23.8827 96.5093 23.6227 95.5718 23.1028C94.6386 22.5787 93.9014 21.8159 93.3602 20.8145C92.819 19.813 92.5484 18.5943 92.5484 17.1582C92.5484 15.7179 92.8232 14.497 93.373 13.4956C93.9227 12.4942 94.6663 11.7335 95.6038 11.2136C96.5413 10.6937 97.5917 10.4338 98.7551 10.4338C99.5477 10.4338 100.281 10.5446 100.954 10.7662C101.627 10.9835 102.22 11.3031 102.731 11.725C103.242 12.1426 103.658 12.6561 103.977 13.2655C104.297 13.8748 104.495 14.5716 104.572 15.3557ZM110.965 23.889C109.934 23.889 109.048 23.6781 108.306 23.2562C107.569 22.8301 107 22.2378 106.6 21.4792C106.203 20.7165 106.005 19.8322 106.005 18.8265C106.005 17.8166 106.203 16.9324 106.6 16.1738C107 15.4111 107.569 14.8187 108.306 14.3969C109.048 13.9707 109.934 13.7577 110.965 13.7577C111.997 13.7577 112.881 13.9707 113.618 14.3969C114.36 14.8187 114.929 15.4111 115.325 16.1738C115.725 16.9324 115.926 17.8166 115.926 18.8265C115.926 19.8322 115.725 20.7165 115.325 21.4792C114.929 22.2378 114.36 22.8301 113.618 23.2562C112.881 23.6781 111.997 23.889 110.965 23.889ZM110.985 21.5304C111.36 21.5304 111.677 21.4153 111.937 21.1852C112.197 20.9551 112.395 20.6355 112.532 20.2264C112.672 19.8173 112.742 19.3443 112.742 18.8074C112.742 18.2619 112.672 17.7846 112.532 17.3755C112.395 16.9665 112.197 16.6469 111.937 16.4167C111.677 16.1866 111.36 16.0716 110.985 16.0716C110.597 16.0716 110.269 16.1866 110 16.4167C109.736 16.6469 109.534 16.9665 109.393 17.3755C109.257 17.7846 109.188 18.2619 109.188 18.8074C109.188 19.3443 109.257 19.8173 109.393 20.2264C109.534 20.6355 109.736 20.9551 110 21.1852C110.269 21.4153 110.597 21.5304 110.985 21.5304ZM121.113 23.8443C120.388 23.8443 119.73 23.6568 119.138 23.2818C118.545 22.9068 118.072 22.3443 117.719 21.5943C117.365 20.8443 117.188 19.9132 117.188 18.801C117.188 17.6461 117.371 16.6959 117.738 15.9501C118.104 15.2044 118.584 14.6525 119.176 14.2946C119.773 13.9366 120.414 13.7577 121.1 13.7577C121.616 13.7577 122.057 13.8471 122.423 14.0261C122.79 14.2008 123.092 14.4267 123.331 14.7037C123.57 14.9807 123.751 15.2683 123.874 15.5666H123.938V10.6128H127.064V23.7037H123.97V22.1121H123.874C123.742 22.4146 123.555 22.698 123.312 22.9622C123.069 23.2264 122.764 23.4395 122.398 23.6014C122.035 23.7633 121.607 23.8443 121.113 23.8443ZM122.199 21.4089C122.579 21.4089 122.903 21.3024 123.171 21.0893C123.44 20.872 123.646 20.5673 123.791 20.1753C123.936 19.7832 124.008 19.323 124.008 18.7946C124.008 18.2577 123.936 17.7953 123.791 17.4075C123.65 17.0197 123.444 16.7214 123.171 16.5126C122.903 16.3038 122.579 16.1994 122.199 16.1994C121.812 16.1994 121.484 16.3059 121.215 16.519C120.947 16.7321 120.742 17.0325 120.601 17.4203C120.465 17.8081 120.397 18.2662 120.397 18.7946C120.397 19.323 120.467 19.7832 120.608 20.1753C120.748 20.5673 120.951 20.872 121.215 21.0893C121.484 21.3024 121.812 21.4089 122.199 21.4089ZM133.63 23.889C132.603 23.889 131.717 23.6866 130.971 23.2818C130.229 22.8727 129.658 22.291 129.258 21.5368C128.862 20.7782 128.663 19.877 128.663 18.8329C128.663 17.8187 128.864 16.9324 129.264 16.1738C129.665 15.4111 130.229 14.8187 130.958 14.3969C131.687 13.9707 132.546 13.7577 133.534 13.7577C134.233 13.7577 134.872 13.8663 135.452 14.0836C136.031 14.301 136.532 14.6227 136.954 15.0488C137.376 15.475 137.704 16.0013 137.938 16.6277C138.173 17.2498 138.29 17.9636 138.29 18.769V19.5488H129.756V17.7335H135.381C135.377 17.4011 135.298 17.105 135.145 16.845C134.992 16.5851 134.781 16.3827 134.512 16.2378C134.248 16.0886 133.943 16.014 133.598 16.014C133.249 16.014 132.935 16.0929 132.658 16.2505C132.381 16.404 132.162 16.6149 132 16.8834C131.838 17.1476 131.753 17.448 131.744 17.7846V19.6319C131.744 20.0325 131.823 20.3841 131.981 20.6866C132.139 20.9849 132.362 21.2172 132.652 21.3834C132.942 21.5496 133.287 21.6327 133.688 21.6327C133.965 21.6327 134.216 21.5943 134.442 21.5176C134.668 21.4409 134.862 21.328 135.024 21.1788C135.185 21.0297 135.307 20.8464 135.388 20.6291L138.258 20.7122C138.139 21.3557 137.877 21.916 137.472 22.3933C137.071 22.8663 136.545 23.2349 135.893 23.4991C135.241 23.7591 134.487 23.889 133.63 23.889Z" fill="#2EF2AA"/>
<rect y="0.333313" width="38.8889" height="33.3333" fill="#2EF2AA"/>
</svg>
