<svg xmlns="http://www.w3.org/2000/svg" xmlns:xlink="http://www.w3.org/1999/xlink" xmlns:lucid="lucid" width="1664.13" height="929.17"><g transform="translate(0 0)" lucid:page-tab-id="0_0"><path d="M0 0h1664.13v929.17H0z" fill="#fff"/><path d="M280 205a5 5 0 0 1 5-5h290a5 5 0 0 1 5 5v94a5 5 0 0 1-5 5H285a5 5 0 0 1-5-5z" fill="#fff"/><path d="M280 240v-35a5 5 0 0 1 5-5h290a5 5 0 0 1 5 5v35" fill="#c3f7c8"/><path d="M280 205a5 5 0 0 1 5-5h290a5 5 0 0 1 5 5v94a5 5 0 0 1-5 5H285a5 5 0 0 1-5-5zM280 240h300M430 240v64" stroke="#333" fill="none"/><use xlink:href="#a" transform="matrix(1,0,0,1,290,200) translate(0 23.6)"/><use xlink:href="#b" transform="matrix(1,0,0,1,285,242.5) translate(0 17.1)"/><use xlink:href="#c" transform="matrix(1,0,0,1,435,242.5) translate(0 17.1)"/><use xlink:href="#d" transform="matrix(1,0,0,1,285,274.5) translate(0 17.1)"/><use xlink:href="#c" transform="matrix(1,0,0,1,435,274.5) translate(0 17.1)"/><path d="M730.94 445a5 5 0 0 1 5-5h240.94a5 5 0 0 1 5 5v254a5 5 0 0 1-5 5H735.94a5 5 0 0 1-5-5z" fill="#fff"/><path d="M730.94 480v-35a5 5 0 0 1 5-5h240.94a5 5 0 0 1 5 5v35" fill="#c3f7c8"/><path d="M730.94 445a5 5 0 0 1 5-5h240.94a5 5 0 0 1 5 5v254a5 5 0 0 1-5 5H735.94a5 5 0 0 1-5-5zM730.94 480h250.94M856.4 480v224" stroke="#333" fill="none"/><use xlink:href="#e" transform="matrix(1,0,0,1,740.9381196393896,440) translate(0 23.6)"/><use xlink:href="#f" transform="matrix(1,0,0,1,735.9381196393896,482.5) translate(0 17.1)"/><use xlink:href="#g" transform="matrix(1,0,0,1,861.4071794590841,482.5) translate(0 17.1)"/><use xlink:href="#h" transform="matrix(1,0,0,1,735.9381196393896,514.5) translate(0 17.1)"/><use xlink:href="#g" transform="matrix(1,0,0,1,861.4071794590841,514.5) translate(0 17.1)"/><use xlink:href="#i" transform="matrix(1,0,0,1,735.9381196393896,546.5) translate(0 17.1)"/><use xlink:href="#j" transform="matrix(1,0,0,1,861.4071794590841,546.5) translate(0 17.1)"/><use xlink:href="#k" transform="matrix(1,0,0,1,735.9381196393896,578.5) translate(0 17.1)"/><use xlink:href="#l" transform="matrix(1,0,0,1,861.4071794590841,578.5) translate(0 17.1)"/><use xlink:href="#m" transform="matrix(1,0,0,1,735.9381196393896,610.5) translate(0 17.1)"/><use xlink:href="#c" transform="matrix(1,0,0,1,861.4071794590841,610.5) translate(0 17.1)"/><use xlink:href="#n" transform="matrix(1,0,0,1,735.9381196393896,642.5) translate(0 17.1)"/><use xlink:href="#c" transform="matrix(1,0,0,1,861.4071794590841,642.5) translate(0 17.1)"/><use xlink:href="#o" transform="matrix(1,0,0,1,735.9381196393896,674.5) translate(0 17.1)"/><use xlink:href="#p" transform="matrix(1,0,0,1,861.4071794590841,674.5) translate(0 17.1)"/><path d="M280 445a5 5 0 0 1 5-5h240.94a5 5 0 0 1 5 5v222a5 5 0 0 1-5 5H285a5 5 0 0 1-5-5z" fill="#fff"/><path d="M280 480v-35a5 5 0 0 1 5-5h240.94a5 5 0 0 1 5 5v35" fill="#c3f7c8"/><path d="M280 445a5 5 0 0 1 5-5h240.94a5 5 0 0 1 5 5v222a5 5 0 0 1-5 5H285a5 5 0 0 1-5-5zM280 480h250.94M405.47 480v192" stroke="#333" fill="none"/><use xlink:href="#q" transform="matrix(1,0,0,1,290.00000000000034,440) translate(0 23.6)"/><use xlink:href="#b" transform="matrix(1,0,0,1,285.00000000000034,482.5) translate(0 17.1)"/><use xlink:href="#g" transform="matrix(1,0,0,1,410.46905981969485,482.5) translate(0 17.1)"/><use xlink:href="#r" transform="matrix(1,0,0,1,285.00000000000034,514.5) translate(0 17.1)"/><use xlink:href="#s" transform="matrix(1,0,0,1,410.46905981969485,514.5) translate(0 17.1)"/><use xlink:href="#d" transform="matrix(1,0,0,1,285.00000000000034,546.5) translate(0 17.1)"/><use xlink:href="#c" transform="matrix(1,0,0,1,410.46905981969485,546.5) translate(0 17.1)"/><use xlink:href="#t" transform="matrix(1,0,0,1,285.00000000000034,578.5) translate(0 17.1)"/><use xlink:href="#p" transform="matrix(1,0,0,1,410.46905981969485,578.5) translate(0 17.1)"/><use xlink:href="#u" transform="matrix(1,0,0,1,285.00000000000034,610.5) translate(0 17.1)"/><use xlink:href="#v" transform="matrix(1,0,0,1,410.46905981969485,610.5) translate(0 17.1)"/><use xlink:href="#w" transform="matrix(1,0,0,1,285.00000000000034,642.5) translate(0 17.1)"/><use xlink:href="#v" transform="matrix(1,0,0,1,410.46905981969485,642.5) translate(0 17.1)"/><path d="M1181.88 445a5 5 0 0 1 5-5h290a5 5 0 0 1 5 5v222a5 5 0 0 1-5 5h-290a5 5 0 0 1-5-5z" fill="#fff"/><path d="M1181.88 480v-35a5 5 0 0 1 5-5h290a5 5 0 0 1 5 5v35" fill="#c3f7c8"/><path d="M1181.88 445a5 5 0 0 1 5-5h290a5 5 0 0 1 5 5v222a5 5 0 0 1-5 5h-290a5 5 0 0 1-5-5zM1181.88 480h300M1331.88 480v192" stroke="#333" fill="none"/><use xlink:href="#x" transform="matrix(1,0,0,1,1191.8762392787785,440) translate(0 23.6)"/><use xlink:href="#b" transform="matrix(1,0,0,1,1186.8762392787785,482.5) translate(0 17.1)"/><use xlink:href="#c" transform="matrix(1,0,0,1,1336.8762392787785,482.5) translate(0 17.1)"/><use xlink:href="#r" transform="matrix(1,0,0,1,1186.8762392787785,514.5) translate(0 17.1)"/><use xlink:href="#c" transform="matrix(1,0,0,1,1336.8762392787785,514.5) translate(0 17.1)"/><use xlink:href="#y" transform="matrix(1,0,0,1,1186.8762392787785,546.5) translate(0 17.1)"/><use xlink:href="#z" transform="matrix(1,0,0,1,1336.8762392787785,546.5) translate(0 17.1)"/><use xlink:href="#d" transform="matrix(1,0,0,1,1186.8762392787785,578.5) translate(0 17.1)"/><use xlink:href="#c" transform="matrix(1,0,0,1,1336.8762392787785,578.5) translate(0 17.1)"/><use xlink:href="#w" transform="matrix(1,0,0,1,1186.8762392787785,610.5) translate(0 17.1)"/><use xlink:href="#v" transform="matrix(1,0,0,1,1336.8762392787785,610.5) translate(0 17.1)"/><use xlink:href="#w" transform="matrix(1,0,0,1,1186.8762392787785,642.5) translate(0 17.1)"/><use xlink:href="#v" transform="matrix(1,0,0,1,1336.8762392787785,642.5) translate(0 17.1)"/><path d="M756.4 208a8 8 0 0 1 8-8h184a8 8 0 0 1 8 8v120a8 8 0 0 1-8 8h-184a8 8 0 0 1-8-8z" fill="#fff"/><path d="M756.4 240v-32a8 8 0 0 1 8-8h184a8 8 0 0 1 8 8v32" fill="#c3f7c8"/><path d="M756.4 208a8 8 0 0 1 8-8h184a8 8 0 0 1 8 8v120a8 8 0 0 1-8 8h-184a8 8 0 0 1-8-8zM756.4 240h200" stroke="#333" fill="none"/><use xlink:href="#A" transform="matrix(1,0,0,1,766.4071794590836,200) translate(67.05 23.6)"/><use xlink:href="#B" transform="matrix(1,0,0,1,761.4071794590836,242.5) translate(52.62499999999999 17.1)"/><use xlink:href="#C" transform="matrix(1,0,0,1,761.4071794590836,274.5) translate(38.574999999999996 17.1)"/><use xlink:href="#D" transform="matrix(1,0,0,1,761.4071794590836,306.5) translate(66.07499999999999 17.1)"/><path d="M710.44 560h-79.5v.02h-80.1" stroke="#333" fill="none"/><path d="M710.44 550v20M730.44 560h-20" stroke="#333" fill="#fff"/><path d="M531.66 550.02l20 10-20 10" stroke="#333" fill="#fff" fill-opacity="0"/><path d="M531.66 560.02h20" stroke="#333" fill="#fff"/><path d="M1002.38 560h79.5v.02h80.08" stroke="#333" fill="none"/><path d="M1002.38 570v-20M982.38 560h20" stroke="#333" fill="#fff"/><path d="M1181.15 570.02l-20-10 20-10" stroke="#333" fill="#fff" fill-opacity="0"/><path d="M1181.15 560.02h-20" stroke="#333" fill="#fff"/><defs><path fill="#333" d="M248-139C247-14 144 9 11 0l48-248c105-6 190 8 189 109zm-34 0c1-70-52-87-126-82L50-27c98 7 163-21 164-112" id="E"/><path fill="#333" d="M30-147c31-64 166-65 159 27C183-49 158 1 86 4 9 8 1-88 30-147zM88-20c53 0 68-48 68-100 0-31-11-51-44-50-52 1-68 46-68 97 0 32 13 53 44 53" id="F"/><path fill="#333" d="M44-68c0 29 11 47 38 47 30 0 42-19 51-41l28 9C148-21 126 4 82 4 31 4 10-29 12-85c3-77 74-140 146-93 12 8 15 23 18 40l-31 5c-1-22-13-36-36-36-52 0-65 49-65 101" id="G"/><path fill="#333" d="M67 3c-93-2-31-127-26-193h32L48-50c-3 39 53 32 70 12 30-34 30-101 43-152h32L157 0h-30c1-10 6-24 4-33-14 20-29 37-64 36" id="H"/><path fill="#333" d="M248-111c6-24 9-61-24-58-72 9-57 108-77 169h-31l26-142c3-37-50-30-64-10C52-115 50-51 37 0H6l36-190h30c-1 10-6 24-4 32 13-43 101-52 105 5 13-22 29-41 61-41 90 0 28 129 23 194h-31" id="I"/><path fill="#333" d="M111-194c62-3 86 47 72 106H45c-7 38 6 69 45 68 27-1 43-14 53-32l24 11C152-15 129 4 87 4 38 3 12-23 12-71c0-70 32-119 99-123zm44 81c14-66-71-72-95-28-4 8-8 17-11 28h106" id="J"/><path fill="#333" d="M67-158c22-48 132-52 116 29L158 0h-32l25-140c3-38-53-32-70-12C52-117 51-52 38 0H6l36-190h30" id="K"/><path fill="#333" d="M51-54c-9 22 5 41 31 30L79-1C43 14 10-4 19-52l22-115H19l5-23h22l19-43h21l-9 43h35l-4 23H73" id="L"/><path fill="#333" d="M165-48c-4 18 1 34 23 27l-3 20c-29 8-62 0-52-35h-2C116-14 99 4 63 4 30 4 8-16 8-49c0-68 71-67 138-67 10-26 0-56-31-54-26 1-42 9-47 31l-32-5c8-67 160-71 144 15-5 28-9 54-15 81zM42-50c3 52 80 24 89-6 7-12 7-24 11-38-47 1-103-4-100 44" id="M"/><path fill="#333" d="M50-231l6-30h32l-6 30H50zM6 0l37-190h31L37 0H6" id="N"/><g id="a"><use transform="matrix(0.05,0,0,0.05,0,0)" xlink:href="#E"/><use transform="matrix(0.05,0,0,0.05,12.950000000000001,0)" xlink:href="#F"/><use transform="matrix(0.05,0,0,0.05,22.950000000000003,0)" xlink:href="#G"/><use transform="matrix(0.05,0,0,0.05,31.950000000000003,0)" xlink:href="#H"/><use transform="matrix(0.05,0,0,0.05,41.95,0)" xlink:href="#I"/><use transform="matrix(0.05,0,0,0.05,56.900000000000006,0)" xlink:href="#J"/><use transform="matrix(0.05,0,0,0.05,66.9,0)" xlink:href="#K"/><use transform="matrix(0.05,0,0,0.05,76.9,0)" xlink:href="#L"/><use transform="matrix(0.05,0,0,0.05,81.9,0)" xlink:href="#M"/><use transform="matrix(0.05,0,0,0.05,91.9,0)" xlink:href="#L"/><use transform="matrix(0.05,0,0,0.05,96.9,0)" xlink:href="#N"/><use transform="matrix(0.05,0,0,0.05,100.85000000000001,0)" xlink:href="#F"/><use transform="matrix(0.05,0,0,0.05,110.85000000000001,0)" xlink:href="#K"/></g><path fill="#333" d="M6 0l50-261h32L37 0H6" id="O"/><g id="b"><use transform="matrix(0.05,0,0,0.05,0,0)" xlink:href="#L"/><use transform="matrix(0.05,0,0,0.05,5,0)" xlink:href="#N"/><use transform="matrix(0.05,0,0,0.05,8.95,0)" xlink:href="#L"/><use transform="matrix(0.05,0,0,0.05,13.949999999999998,0)" xlink:href="#O"/><use transform="matrix(0.05,0,0,0.05,17.9,0)" xlink:href="#J"/></g><path fill="#333" d="M124 0L87-78 21 0h-35l86-98-46-92h33l34 74 61-74h37l-83 92 50 98h-34" id="P"/><g id="c"><use transform="matrix(0.05,0,0,0.05,0,0)" xlink:href="#L"/><use transform="matrix(0.05,0,0,0.05,5,0)" xlink:href="#J"/><use transform="matrix(0.05,0,0,0.05,15,0)" xlink:href="#P"/><use transform="matrix(0.05,0,0,0.05,24,0)" xlink:href="#L"/></g><g id="d"><use transform="matrix(0.05,0,0,0.05,0,0)" xlink:href="#G"/><use transform="matrix(0.05,0,0,0.05,9,0)" xlink:href="#F"/><use transform="matrix(0.05,0,0,0.05,19,0)" xlink:href="#K"/><use transform="matrix(0.05,0,0,0.05,29,0)" xlink:href="#L"/><use transform="matrix(0.05,0,0,0.05,34,0)" xlink:href="#J"/><use transform="matrix(0.05,0,0,0.05,44,0)" xlink:href="#K"/><use transform="matrix(0.05,0,0,0.05,54,0)" xlink:href="#L"/></g><path fill="#333" d="M62-99C39-31 123 0 170-40s38-139 58-208h34C234-144 253 4 115 4 49 4 18-43 31-112l26-136h34" id="Q"/><path fill="#333" d="M55-144c13 50 104 24 104 88C159 21 15 23 1-39l26-10c6 40 102 42 102-4-13-50-104-23-104-87 0-71 143-71 148-8l-29 4c-5-35-85-37-89 0" id="R"/><path fill="#333" d="M66-151c12-25 30-51 66-40l-6 26C45-176 58-65 38 0H6l36-190h30" id="S"/><g id="e"><use transform="matrix(0.05,0,0,0.05,0,0)" xlink:href="#Q"/><use transform="matrix(0.05,0,0,0.05,12.950000000000001,0)" xlink:href="#R"/><use transform="matrix(0.05,0,0,0.05,21.950000000000003,0)" xlink:href="#J"/><use transform="matrix(0.05,0,0,0.05,31.950000000000003,0)" xlink:href="#S"/></g><g id="f"><use transform="matrix(0.05,0,0,0.05,0,0)" xlink:href="#K"/><use transform="matrix(0.05,0,0,0.05,10,0)" xlink:href="#M"/><use transform="matrix(0.05,0,0,0.05,20,0)" xlink:href="#I"/><use transform="matrix(0.05,0,0,0.05,34.95,0)" xlink:href="#J"/></g><path fill="#333" d="M67-158c15-20 31-36 64-36 94 0 33 127 27 194h-32l25-140c3-38-53-32-70-12C52-117 51-51 37 0H6l51-261h31" id="T"/><path fill="#333" d="M17-49c1-102 45-165 103-212h30C92-210 49-145 49-46 49 4 63 43 85 75H54C30 43 18 2 17-49" id="U"/><path fill="#333" d="M9 0l6-27h63l36-188-63 39 6-31 66-41h29L110-27h60l-5 27H9" id="V"/><path fill="#333" d="M151-85c6-55-69-56-94-29H26l34-134h141l-5 27H84l-20 79c41-34 127-11 121 53C199 13 30 38 8-54l29-8C52 0 159-13 151-85" id="W"/><path fill="#333" d="M16-82c0-90 25-169 113-169 48 0 68 33 68 82C197-79 170 4 84 4 37 4 16-31 16-82zm30 5c0 32 11 55 40 55 69 0 76-79 80-149 2-32-10-55-39-55-69 0-81 81-81 149" id="X"/><path fill="#333" d="M98-137C97-35 54 29-4 75h-31C23 23 67-41 67-140c0-50-15-89-37-121h31c24 32 36 73 37 124" id="Y"/><g id="g"><use transform="matrix(0.05,0,0,0.05,0,0)" xlink:href="#G"/><use transform="matrix(0.05,0,0,0.05,9,0)" xlink:href="#T"/><use transform="matrix(0.05,0,0,0.05,19,0)" xlink:href="#M"/><use transform="matrix(0.05,0,0,0.05,29,0)" xlink:href="#S"/><use transform="matrix(0.05,0,0,0.05,34.95,0)" xlink:href="#U"/><use transform="matrix(0.05,0,0,0.05,40.900000000000006,0)" xlink:href="#V"/><use transform="matrix(0.05,0,0,0.05,50.900000000000006,0)" xlink:href="#W"/><use transform="matrix(0.05,0,0,0.05,60.900000000000006,0)" xlink:href="#X"/><use transform="matrix(0.05,0,0,0.05,70.9,0)" xlink:href="#Y"/></g><g id="h"><use transform="matrix(0.05,0,0,0.05,0,0)" xlink:href="#J"/><use transform="matrix(0.05,0,0,0.05,10,0)" xlink:href="#I"/><use transform="matrix(0.05,0,0,0.05,24.950000000000003,0)" xlink:href="#M"/><use transform="matrix(0.05,0,0,0.05,34.95,0)" xlink:href="#N"/><use transform="matrix(0.05,0,0,0.05,38.900000000000006,0)" xlink:href="#O"/></g><path fill="#333" d="M67-162c32-53 139-36 121 50C175-51 163 2 97 4 68 4 52-11 42-31 38 6 28 39 22 75H-9l50-265h29c-1 10 0 20-3 28zm89 36c0-26-10-43-35-43-54 0-67 50-69 103-1 29 14 45 42 46 53 0 62-58 62-106" id="Z"/><path fill="#333" d="M188 0h-37l-8-164L71 0H34L18-190h31l8 164 75-164h34l8 164 74-164h31" id="aa"/><path fill="#333" d="M133-28C103 26-5 8 13-77c13-62 24-115 90-117 29-1 46 15 56 35l19-102h32L160 0h-30zM45-64c-2 27 10 43 35 43 54-1 69-50 69-103 0-29-15-46-42-46-53-1-58 58-62 106" id="ab"/><g id="i"><use transform="matrix(0.05,0,0,0.05,0,0)" xlink:href="#Z"/><use transform="matrix(0.05,0,0,0.05,10,0)" xlink:href="#M"/><use transform="matrix(0.05,0,0,0.05,20,0)" xlink:href="#R"/><use transform="matrix(0.05,0,0,0.05,29,0)" xlink:href="#R"/><use transform="matrix(0.05,0,0,0.05,38,0)" xlink:href="#aa"/><use transform="matrix(0.05,0,0,0.05,50.95,0)" xlink:href="#F"/><use transform="matrix(0.05,0,0,0.05,60.95,0)" xlink:href="#S"/><use transform="matrix(0.05,0,0,0.05,66.9,0)" xlink:href="#ab"/></g><g id="j"><use transform="matrix(0.05,0,0,0.05,0,0)" xlink:href="#G"/><use transform="matrix(0.05,0,0,0.05,9,0)" xlink:href="#T"/><use transform="matrix(0.05,0,0,0.05,19,0)" xlink:href="#M"/><use transform="matrix(0.05,0,0,0.05,29,0)" xlink:href="#S"/><use transform="matrix(0.05,0,0,0.05,34.95,0)" xlink:href="#U"/><use transform="matrix(0.05,0,0,0.05,40.900000000000006,0)" xlink:href="#V"/><use transform="matrix(0.05,0,0,0.05,50.900000000000006,0)" xlink:href="#X"/><use transform="matrix(0.05,0,0,0.05,60.900000000000006,0)" xlink:href="#X"/><use transform="matrix(0.05,0,0,0.05,70.9,0)" xlink:href="#Y"/></g><g id="k"><use transform="matrix(0.05,0,0,0.05,0,0)" xlink:href="#S"/><use transform="matrix(0.05,0,0,0.05,5.95,0)" xlink:href="#F"/><use transform="matrix(0.05,0,0,0.05,15.949999999999998,0)" xlink:href="#O"/><use transform="matrix(0.05,0,0,0.05,19.9,0)" xlink:href="#J"/></g><path fill="#333" d="M249-183c0 48-29 72-75 77L221 0h-36l-43-103H65L45 0H11l48-248c83 2 190-17 190 65zm-34 3c0-55-74-39-127-41l-18 92c63-1 145 13 145-51" id="ac"/><g id="l"><use transform="matrix(0.05,0,0,0.05,0,0)" xlink:href="#ac"/><use transform="matrix(0.05,0,0,0.05,12.950000000000001,0)" xlink:href="#F"/><use transform="matrix(0.05,0,0,0.05,22.950000000000003,0)" xlink:href="#O"/><use transform="matrix(0.05,0,0,0.05,26.900000000000002,0)" xlink:href="#J"/><use transform="matrix(0.05,0,0,0.05,36.900000000000006,0)" xlink:href="#R"/></g><path fill="#333" d="M68-162c25-46 127-43 121 31C183-60 169 1 98 4 69 5 53-11 43-31L36 0H5l52-261h31zm88 36c2-27-9-43-34-43-55 0-70 51-70 103 0 29 15 45 43 46 52 0 58-58 61-106" id="ad"/><g id="m"><use transform="matrix(0.05,0,0,0.05,0,0)" xlink:href="#ad"/><use transform="matrix(0.05,0,0,0.05,10,0)" xlink:href="#N"/><use transform="matrix(0.05,0,0,0.05,13.949999999999998,0)" xlink:href="#F"/></g><path fill="#333" d="M89 0H52L20-190h33L74-25l89-165h34" id="ae"/><g id="n"><use transform="matrix(0.05,0,0,0.05,0,0)" xlink:href="#M"/><use transform="matrix(0.05,0,0,0.05,10,0)" xlink:href="#ae"/><use transform="matrix(0.05,0,0,0.05,19,0)" xlink:href="#M"/><use transform="matrix(0.05,0,0,0.05,29,0)" xlink:href="#L"/><use transform="matrix(0.05,0,0,0.05,34,0)" xlink:href="#M"/><use transform="matrix(0.05,0,0,0.05,44,0)" xlink:href="#S"/></g><g id="o"><use transform="matrix(0.05,0,0,0.05,0,0)" xlink:href="#L"/><use transform="matrix(0.05,0,0,0.05,5,0)" xlink:href="#T"/><use transform="matrix(0.05,0,0,0.05,15,0)" xlink:href="#J"/><use transform="matrix(0.05,0,0,0.05,25,0)" xlink:href="#I"/><use transform="matrix(0.05,0,0,0.05,39.95,0)" xlink:href="#J"/></g><path fill="#333" d="M14 0l48-248h34L48 0H14" id="af"/><path fill="#333" d="M103-194c29 0 47 14 56 36 2-11 5-23 8-32h30L160-5C157 61 82 97 21 62 9 55 4 45 1 30l28-7c7 42 83 31 92-3 4-16 9-38 13-55-13 20-29 36-62 36-40 0-60-25-60-64 0-71 23-131 91-131zm4 24c-53 0-58 54-61 104-2 27 10 44 36 44 49 0 65-50 67-102 1-29-15-46-42-46" id="ag"/><g id="p"><use transform="matrix(0.05,0,0,0.05,0,0)" xlink:href="#af"/><use transform="matrix(0.05,0,0,0.05,5,0)" xlink:href="#K"/><use transform="matrix(0.05,0,0,0.05,15,0)" xlink:href="#L"/><use transform="matrix(0.05,0,0,0.05,20,0)" xlink:href="#J"/><use transform="matrix(0.05,0,0,0.05,30,0)" xlink:href="#ag"/><use transform="matrix(0.05,0,0,0.05,40,0)" xlink:href="#J"/><use transform="matrix(0.05,0,0,0.05,50,0)" xlink:href="#S"/></g><path fill="#333" d="M151-220L108 0H75l42-220H32l6-28h203l-5 28h-85" id="ah"/><g id="q"><use transform="matrix(0.05,0,0,0.05,0,0)" xlink:href="#ah"/><use transform="matrix(0.05,0,0,0.05,9.600000000000001,0)" xlink:href="#H"/><use transform="matrix(0.05,0,0,0.05,19.6,0)" xlink:href="#L"/><use transform="matrix(0.05,0,0,0.05,24.6,0)" xlink:href="#F"/><use transform="matrix(0.05,0,0,0.05,34.6,0)" xlink:href="#S"/><use transform="matrix(0.05,0,0,0.05,40.550000000000004,0)" xlink:href="#N"/><use transform="matrix(0.05,0,0,0.05,44.50000000000001,0)" xlink:href="#M"/><use transform="matrix(0.05,0,0,0.05,54.5,0)" xlink:href="#O"/></g><g id="r"><use transform="matrix(0.05,0,0,0.05,0,0)" xlink:href="#ab"/><use transform="matrix(0.05,0,0,0.05,10,0)" xlink:href="#J"/><use transform="matrix(0.05,0,0,0.05,20,0)" xlink:href="#R"/><use transform="matrix(0.05,0,0,0.05,29,0)" xlink:href="#G"/><use transform="matrix(0.05,0,0,0.05,38,0)" xlink:href="#S"/><use transform="matrix(0.05,0,0,0.05,43.95,0)" xlink:href="#N"/><use transform="matrix(0.05,0,0,0.05,47.900000000000006,0)" xlink:href="#Z"/><use transform="matrix(0.05,0,0,0.05,57.900000000000006,0)" xlink:href="#L"/><use transform="matrix(0.05,0,0,0.05,62.900000000000006,0)" xlink:href="#N"/><use transform="matrix(0.05,0,0,0.05,66.85000000000001,0)" xlink:href="#F"/><use transform="matrix(0.05,0,0,0.05,76.85000000000001,0)" xlink:href="#K"/></g><path fill="#333" d="M123-251c66 0 92 69 53 113C138-94 73-75 39-27h128l-5 27H-2c17-92 123-93 159-163 14-28-1-64-36-62-29 2-46 17-54 41l-30-6c13-36 37-61 86-61" id="ai"/><g id="s"><use transform="matrix(0.05,0,0,0.05,0,0)" xlink:href="#G"/><use transform="matrix(0.05,0,0,0.05,9,0)" xlink:href="#T"/><use transform="matrix(0.05,0,0,0.05,19,0)" xlink:href="#M"/><use transform="matrix(0.05,0,0,0.05,29,0)" xlink:href="#S"/><use transform="matrix(0.05,0,0,0.05,34.95,0)" xlink:href="#U"/><use transform="matrix(0.05,0,0,0.05,40.900000000000006,0)" xlink:href="#ai"/><use transform="matrix(0.05,0,0,0.05,50.900000000000006,0)" xlink:href="#W"/><use transform="matrix(0.05,0,0,0.05,60.900000000000006,0)" xlink:href="#X"/><use transform="matrix(0.05,0,0,0.05,70.9,0)" xlink:href="#Y"/></g><g id="t"><use transform="matrix(0.05,0,0,0.05,0,0)" xlink:href="#O"/><use transform="matrix(0.05,0,0,0.05,3.95,0)" xlink:href="#J"/><use transform="matrix(0.05,0,0,0.05,13.949999999999998,0)" xlink:href="#ae"/><use transform="matrix(0.05,0,0,0.05,22.95,0)" xlink:href="#J"/><use transform="matrix(0.05,0,0,0.05,32.95,0)" xlink:href="#O"/></g><path fill="#333" d="M187 0l-14-72H61L19 0h-37l149-248h38L221 0h-34zm-19-99l-22-123L76-99h92" id="aj"/><g id="u"><use transform="matrix(0.05,0,0,0.05,0,0)" xlink:href="#G"/><use transform="matrix(0.05,0,0,0.05,9,0)" xlink:href="#S"/><use transform="matrix(0.05,0,0,0.05,14.949999999999998,0)" xlink:href="#J"/><use transform="matrix(0.05,0,0,0.05,24.95,0)" xlink:href="#M"/><use transform="matrix(0.05,0,0,0.05,34.95,0)" xlink:href="#L"/><use transform="matrix(0.05,0,0,0.05,39.95,0)" xlink:href="#J"/><use transform="matrix(0.05,0,0,0.05,49.95,0)" xlink:href="#ab"/><use transform="matrix(0.05,0,0,0.05,59.95,0)" xlink:href="#aj"/><use transform="matrix(0.05,0,0,0.05,71.95,0)" xlink:href="#L"/></g><g id="v"><use transform="matrix(0.05,0,0,0.05,0,0)" xlink:href="#ah"/><use transform="matrix(0.05,0,0,0.05,10.8,0)" xlink:href="#N"/><use transform="matrix(0.05,0,0,0.05,14.75,0)" xlink:href="#I"/><use transform="matrix(0.05,0,0,0.05,29.700000000000003,0)" xlink:href="#J"/><use transform="matrix(0.05,0,0,0.05,39.7,0)" xlink:href="#R"/><use transform="matrix(0.05,0,0,0.05,48.7,0)" xlink:href="#L"/><use transform="matrix(0.05,0,0,0.05,53.7,0)" xlink:href="#M"/><use transform="matrix(0.05,0,0,0.05,63.7,0)" xlink:href="#I"/><use transform="matrix(0.05,0,0,0.05,78.65,0)" xlink:href="#Z"/></g><g id="w"><use transform="matrix(0.05,0,0,0.05,0,0)" xlink:href="#H"/><use transform="matrix(0.05,0,0,0.05,10,0)" xlink:href="#Z"/><use transform="matrix(0.05,0,0,0.05,20,0)" xlink:href="#ab"/><use transform="matrix(0.05,0,0,0.05,30,0)" xlink:href="#M"/><use transform="matrix(0.05,0,0,0.05,40,0)" xlink:href="#L"/><use transform="matrix(0.05,0,0,0.05,45,0)" xlink:href="#J"/><use transform="matrix(0.05,0,0,0.05,55,0)" xlink:href="#ab"/><use transform="matrix(0.05,0,0,0.05,65,0)" xlink:href="#aj"/><use transform="matrix(0.05,0,0,0.05,77,0)" xlink:href="#L"/></g><path fill="#333" d="M238-179c0 84-86 86-175 82L45 0H11l48-248c82 0 179-12 179 69zm-34 1c0-53-64-42-116-43l-19 98c63 0 135 9 135-55" id="ak"/><path fill="#333" d="M51-231l6-30h31l-6 30H51zM33 24C28 60 2 84-40 72c3-12-1-29 18-22C-5 49-1 37 2 19l41-209h32" id="al"/><g id="x"><use transform="matrix(0.05,0,0,0.05,0,0)" xlink:href="#ak"/><use transform="matrix(0.05,0,0,0.05,12,0)" xlink:href="#S"/><use transform="matrix(0.05,0,0,0.05,17.95,0)" xlink:href="#F"/><use transform="matrix(0.05,0,0,0.05,27.950000000000003,0)" xlink:href="#al"/><use transform="matrix(0.05,0,0,0.05,31.899999999999995,0)" xlink:href="#J"/><use transform="matrix(0.05,0,0,0.05,41.9,0)" xlink:href="#G"/><use transform="matrix(0.05,0,0,0.05,50.9,0)" xlink:href="#L"/></g><path fill="#333" d="M76-167L44 0H12l33-167H18l4-23h27c3-47 25-81 82-69l-4 24c-35-8-44 15-46 45h37l-5 23H76" id="am"/><g id="y"><use transform="matrix(0.05,0,0,0.05,0,0)" xlink:href="#am"/><use transform="matrix(0.05,0,0,0.05,5,0)" xlink:href="#M"/><use transform="matrix(0.05,0,0,0.05,15,0)" xlink:href="#ae"/><use transform="matrix(0.05,0,0,0.05,24,0)" xlink:href="#F"/><use transform="matrix(0.05,0,0,0.05,34,0)" xlink:href="#S"/><use transform="matrix(0.05,0,0,0.05,39.95,0)" xlink:href="#N"/><use transform="matrix(0.05,0,0,0.05,43.900000000000006,0)" xlink:href="#L"/><use transform="matrix(0.05,0,0,0.05,48.900000000000006,0)" xlink:href="#J"/></g><g id="z"><use transform="matrix(0.05,0,0,0.05,0,0)" xlink:href="#ad"/><use transform="matrix(0.05,0,0,0.05,10,0)" xlink:href="#F"/><use transform="matrix(0.05,0,0,0.05,20,0)" xlink:href="#F"/><use transform="matrix(0.05,0,0,0.05,30,0)" xlink:href="#O"/><use transform="matrix(0.05,0,0,0.05,33.95,0)" xlink:href="#J"/><use transform="matrix(0.05,0,0,0.05,43.95,0)" xlink:href="#M"/><use transform="matrix(0.05,0,0,0.05,53.95,0)" xlink:href="#K"/></g><path fill="#333" d="M233-177c-1 41-23 64-60 70L243 0h-38l-65-103H63V0H30v-248c88 3 205-21 203 71zM63-129c60-2 137 13 137-47 0-61-80-42-137-45v92" id="an"/><path fill="#333" d="M100-194c62-1 85 37 85 99 1 63-27 99-86 99S16-35 15-95c0-66 28-99 85-99zM99-20c44 1 53-31 53-75 0-43-8-75-51-75s-53 32-53 75 10 74 51 75" id="ao"/><path fill="#333" d="M24 0v-261h32V0H24" id="ap"/><path fill="#333" d="M100-194c63 0 86 42 84 106H49c0 40 14 67 53 68 26 1 43-12 49-29l28 8c-11 28-37 45-77 45C44 4 14-33 15-96c1-61 26-98 85-98zm52 81c6-60-76-77-97-28-3 7-6 17-6 28h103" id="aq"/><path fill="#333" d="M135-143c-3-34-86-38-87 0 15 53 115 12 119 90S17 21 10-45l28-5c4 36 97 45 98 0-10-56-113-15-118-90-4-57 82-63 122-42 12 7 21 19 24 35" id="ar"/><g id="A"><use transform="matrix(0.05,0,0,0.05,0,0)" xlink:href="#an"/><use transform="matrix(0.05,0,0,0.05,12.950000000000001,0)" xlink:href="#ao"/><use transform="matrix(0.05,0,0,0.05,22.950000000000003,0)" xlink:href="#ap"/><use transform="matrix(0.05,0,0,0.05,26.900000000000002,0)" xlink:href="#aq"/><use transform="matrix(0.05,0,0,0.05,36.900000000000006,0)" xlink:href="#ar"/></g><path fill="#333" d="M185-189c-5-48-123-54-124 2 14 75 158 14 163 119 3 78-121 87-175 55-17-10-28-26-33-46l33-7c5 56 141 63 141-1 0-78-155-14-162-118-5-82 145-84 179-34 5 7 8 16 11 25" id="as"/><path fill="#333" d="M127-220V0H93v-220H8v-28h204v28h-85" id="at"/><path fill="#333" d="M232-93c-1 65-40 97-104 97C67 4 28-28 28-90v-158h33c8 89-33 224 67 224 102 0 64-133 71-224h33v155" id="au"/><path fill="#333" d="M30-248c118-7 216 8 213 122C240-48 200 0 122 0H30v-248zM63-27c89 8 146-16 146-99s-60-101-146-95v194" id="av"/><path fill="#333" d="M30 0v-248h187v28H63v79h144v27H63v87h162V0H30" id="aw"/><path fill="#333" d="M190 0L58-211 59 0H30v-248h39L202-35l-2-213h31V0h-41" id="ax"/><g id="B"><use transform="matrix(0.05,0,0,0.05,0,0)" xlink:href="#as"/><use transform="matrix(0.05,0,0,0.05,12,0)" xlink:href="#at"/><use transform="matrix(0.05,0,0,0.05,22.950000000000003,0)" xlink:href="#au"/><use transform="matrix(0.05,0,0,0.05,35.900000000000006,0)" xlink:href="#av"/><use transform="matrix(0.05,0,0,0.05,48.85000000000001,0)" xlink:href="#aw"/><use transform="matrix(0.05,0,0,0.05,60.85,0)" xlink:href="#ax"/><use transform="matrix(0.05,0,0,0.05,73.80000000000001,0)" xlink:href="#at"/></g><path fill="#333" d="M30-248c87 1 191-15 191 75 0 78-77 80-158 76V0H30v-248zm33 125c57 0 124 11 124-50 0-59-68-47-124-48v98" id="ay"/><path fill="#333" d="M140-251c81 0 123 46 123 126C263-46 219 4 140 4 59 4 17-45 17-125s42-126 123-126zm0 227c63 0 89-41 89-101s-29-99-89-99c-61 0-89 39-89 99S79-25 140-24" id="az"/><path fill="#333" d="M63-220v92h138v28H63V0H30v-248h175v28H63" id="aA"/><g id="C"><use transform="matrix(0.05,0,0,0.05,0,0)" xlink:href="#ay"/><use transform="matrix(0.05,0,0,0.05,12,0)" xlink:href="#an"/><use transform="matrix(0.05,0,0,0.05,24.950000000000003,0)" xlink:href="#az"/><use transform="matrix(0.05,0,0,0.05,38.95,0)" xlink:href="#aA"/><use transform="matrix(0.05,0,0,0.05,49.900000000000006,0)" xlink:href="#aw"/><use transform="matrix(0.05,0,0,0.05,61.900000000000006,0)" xlink:href="#as"/><use transform="matrix(0.05,0,0,0.05,73.9,0)" xlink:href="#as"/><use transform="matrix(0.05,0,0,0.05,85.9,0)" xlink:href="#az"/><use transform="matrix(0.05,0,0,0.05,99.9,0)" xlink:href="#an"/></g><path fill="#333" d="M205 0l-28-72H64L36 0H1l101-248h38L239 0h-34zm-38-99l-47-123c-12 45-31 82-46 123h93" id="aB"/><path fill="#333" d="M240 0l2-218c-23 76-54 145-80 218h-23L58-218 59 0H30v-248h44l77 211c21-75 51-140 76-211h43V0h-30" id="aC"/><path fill="#333" d="M33 0v-248h34V0H33" id="aD"/><g id="D"><use transform="matrix(0.05,0,0,0.05,0,0)" xlink:href="#aB"/><use transform="matrix(0.05,0,0,0.05,12,0)" xlink:href="#av"/><use transform="matrix(0.05,0,0,0.05,24.950000000000003,0)" xlink:href="#aC"/><use transform="matrix(0.05,0,0,0.05,39.900000000000006,0)" xlink:href="#aD"/><use transform="matrix(0.05,0,0,0.05,44.900000000000006,0)" xlink:href="#ax"/></g></defs></g></svg>