<svg width="25" height="21" viewBox="0 0 25 21" fill="none" xmlns="http://www.w3.org/2000/svg">
<path d="M1.7959 2.38167V8.38167M1.7959 8.38167H7.7959M1.7959 8.38167L6.4359 4.02167C7.51065 2.94638 8.84027 2.16087 10.3007 1.73844C11.7611 1.31601 13.3048 1.27042 14.7876 1.60593C16.2704 1.94143 17.6441 2.6471 18.7804 3.65709C19.9168 4.66707 20.7787 5.94845 21.2859 7.38167M23.7959 18.3817V12.3817M23.7959 12.3817H17.7959M23.7959 12.3817L19.1559 16.7417C18.0812 17.817 16.7515 18.6025 15.2911 19.0249C13.8307 19.4473 12.287 19.4929 10.8042 19.1574C9.32136 18.8219 7.9477 18.1162 6.81137 17.1062C5.67503 16.0963 4.81307 14.8149 4.3059 13.3817" stroke="white" stroke-width="2" stroke-linecap="round" stroke-linejoin="round"/>
</svg>
