<svg width="22" height="24" viewBox="0 0 22 24" fill="none" xmlns="http://www.w3.org/2000/svg">
<path d="M8.5 19.0268C3.5 20.5268 3.5 16.5268 1.5 16.0268M15.5 22.0268V18.1568C15.5375 17.68 15.4731 17.2006 15.311 16.7506C15.1489 16.3006 14.8929 15.8902 14.56 15.5468C17.7 15.1968 21 14.0068 21 8.54679C20.9997 7.15062 20.4627 5.80799 19.5 4.79679C19.9559 3.5753 19.9236 2.22514 19.41 1.02679C19.41 1.02679 18.23 0.676793 15.5 2.50679C13.208 1.88561 10.792 1.88561 8.5 2.50679C5.77 0.676793 4.59 1.02679 4.59 1.02679C4.07638 2.22514 4.04414 3.5753 4.5 4.79679C3.53013 5.81549 2.99252 7.17026 3 8.57679C3 13.9968 6.3 15.1868 9.44 15.5768C9.111 15.9168 8.85726 16.3222 8.69531 16.7667C8.53335 17.2112 8.46681 17.6849 8.5 18.1568V22.0268" stroke="white" stroke-width="2" stroke-linecap="round" stroke-linejoin="round"/>
</svg>
