<svg width="22" height="22" viewBox="0 0 22 22" fill="none" xmlns="http://www.w3.org/2000/svg">
<path d="M13.4972 5.68768C13.314 5.8746 13.2114 6.12592 13.2114 6.38768C13.2114 6.64943 13.314 6.90075 13.4972 7.08768L15.0972 8.68768C15.2841 8.8709 15.5355 8.97353 15.7972 8.97353C16.059 8.97353 16.3103 8.8709 16.4972 8.68768L20.2672 4.91768C20.7701 6.02886 20.9223 7.26691 20.7037 8.46682C20.485 9.66673 19.9059 10.7715 19.0435 11.634C18.1811 12.4964 17.0763 13.0755 15.8764 13.2941C14.6765 13.5128 13.4384 13.3605 12.3272 12.8577L5.41722 19.7677C5.01939 20.1655 4.47983 20.389 3.91722 20.389C3.35461 20.389 2.81504 20.1655 2.41722 19.7677C2.01939 19.3698 1.7959 18.8303 1.7959 18.2677C1.7959 17.7051 2.01939 17.1655 2.41722 16.7677L9.32722 9.85768C8.82438 8.74649 8.67213 7.50844 8.89076 6.30853C9.10939 5.10862 9.68851 4.00383 10.5509 3.1414C11.4134 2.27896 12.5182 1.69984 13.7181 1.48122C14.918 1.26259 16.156 1.41484 17.2672 1.91768L13.4972 5.68768Z" stroke="#2EF2AA" stroke-width="2" stroke-linecap="round" stroke-linejoin="round"/>
</svg>
