<svg width="36" height="35" viewBox="0 0 36 35" fill="none" xmlns="http://www.w3.org/2000/svg">
<path d="M8.02075 7.75H8.03745M8.02075 27.25H8.03745M4.68012 1.25H31.4023C33.2471 1.25 34.7426 2.70507 34.7426 4.5V11C34.7426 12.7949 33.2471 14.25 31.4023 14.25H4.68012C2.83534 14.25 1.33984 12.7949 1.33984 11V4.5C1.33984 2.70507 2.83534 1.25 4.68012 1.25ZM4.68012 20.75H31.4023C33.2471 20.75 34.7426 22.2051 34.7426 24V30.5C34.7426 32.2949 33.2471 33.75 31.4023 33.75H4.68012C2.83534 33.75 1.33984 32.2949 1.33984 30.5V24C1.33984 22.2051 2.83534 20.75 4.68012 20.75Z" stroke="white" stroke-width="2.16667" stroke-linecap="round" stroke-linejoin="round"/>
</svg>
