<svg width="48" height="39" viewBox="0 0 48 39" fill="none" xmlns="http://www.w3.org/2000/svg">
<path d="M10.9814 20.3574C10.9814 21.2363 12.1777 22.2617 14.5703 23.4336C15.4492 23.8242 16.2549 24.6299 16.9873 25.8506C17.7686 27.0713 18.1592 28.6582 18.1592 30.6113C18.1592 32.5645 17.3779 34.4199 15.8154 36.1777C14.3018 37.8867 12.373 38.7412 10.0293 38.7412C7.68555 38.7412 5.83008 38.3262 4.46289 37.4961C3.14453 36.6172 2.2168 35.4941 1.67969 34.127C0.751953 31.7832 0.288086 29.1221 0.288086 26.1436C0.288086 18.3799 5.02441 9.93262 14.4971 0.801758L20.5029 6.0752C14.1553 12.1299 10.9814 16.8906 10.9814 20.3574ZM38.4473 20.3574C38.4473 21.2363 39.6436 22.2617 42.0361 23.4336C42.915 23.8242 43.7207 24.6299 44.4531 25.8506C45.2344 27.0713 45.625 28.6582 45.625 30.6113C45.625 32.5645 44.8438 34.4199 43.2812 36.1777C41.7676 37.8867 39.8389 38.7412 37.4951 38.7412C35.1514 38.7412 33.2959 38.3262 31.9287 37.4961C30.6104 36.6172 29.6826 35.4941 29.1455 34.127C28.2178 31.7832 27.7539 29.1221 27.7539 26.1436C27.7539 18.3799 32.4902 9.93262 41.9629 0.801758L47.9688 6.0752C41.6211 12.1299 38.4473 16.8906 38.4473 20.3574Z" fill="#2EF2AA"/>
</svg>
