<svg width="139" height="34" viewBox="0 0 139 34" fill="none" xmlns="http://www.w3.org/2000/svg">
<path d="M49.5953 10.2795H53.5136L56.8374 18.3846H56.9909L60.3147 10.2795H64.233V23.3704H61.1521V15.3292H61.0434L57.8985 23.2873H55.9298L52.7849 15.2844H52.6762V23.3704H49.5953V10.2795ZM66.2066 23.3704V13.5522H69.3323V23.3704H66.2066ZM67.7726 12.408C67.3337 12.408 66.9566 12.2631 66.6412 11.9733C66.3259 11.6793 66.1682 11.3256 66.1682 10.9123C66.1682 10.5032 66.3259 10.1537 66.6412 9.86397C66.9566 9.56993 67.3337 9.42292 67.7726 9.42292C68.2158 9.42292 68.593 9.56993 68.904 9.86397C69.2194 10.1537 69.377 10.5032 69.377 10.9123C69.377 11.3256 69.2194 11.6793 68.904 11.9733C68.593 12.2631 68.2158 12.408 67.7726 12.408ZM71.3218 27.0522V13.5522H74.4156V15.2333H74.5115C74.6393 14.935 74.8204 14.6473 75.0548 14.3704C75.2934 14.0934 75.596 13.8675 75.9624 13.6928C76.3332 13.5138 76.7764 13.4243 77.292 13.4243C77.9738 13.4243 78.6109 13.6033 79.2032 13.9613C79.7998 14.3192 80.2813 14.8711 80.6478 15.6168C81.0143 16.3625 81.1975 17.3128 81.1975 18.4677C81.1975 19.5799 81.0207 20.511 80.667 21.261C80.3176 22.011 79.8445 22.5735 79.248 22.9485C78.6556 23.3235 77.9972 23.511 77.2728 23.511C76.7785 23.511 76.3502 23.43 75.988 23.2681C75.6258 23.1062 75.3211 22.8931 75.074 22.6289C74.8311 22.3647 74.6436 22.0813 74.5115 21.7787H74.4475V27.0522H71.3218ZM74.3836 18.4613C74.3836 18.9897 74.4539 19.4499 74.5945 19.842C74.7394 20.234 74.9461 20.5387 75.2146 20.756C75.4873 20.9691 75.8133 21.0756 76.1926 21.0756C76.5761 21.0756 76.9021 20.9691 77.1705 20.756C77.439 20.5387 77.6414 20.234 77.7778 19.842C77.9184 19.4499 77.9887 18.9897 77.9887 18.4613C77.9887 17.9329 77.9184 17.4748 77.7778 17.087C77.6414 16.6992 77.439 16.3988 77.1705 16.1857C76.9063 15.9726 76.5803 15.8661 76.1926 15.8661C75.809 15.8661 75.483 15.9705 75.2146 16.1793C74.9461 16.3881 74.7394 16.6864 74.5945 17.0742C74.4539 17.462 74.3836 17.9243 74.3836 18.4613ZM91.4072 16.55L88.5372 16.6268C88.5074 16.4222 88.4264 16.2411 88.2943 16.0834C88.1622 15.9215 87.9896 15.7958 87.7765 15.7063C87.5677 15.6125 87.3248 15.5657 87.0479 15.5657C86.6856 15.5657 86.3767 15.6381 86.121 15.783C85.8696 15.9279 85.746 16.1239 85.7503 16.3711C85.746 16.5628 85.8227 16.729 85.9804 16.8697C86.1423 17.0103 86.43 17.1232 86.8433 17.2084L88.7354 17.5664C89.7155 17.7539 90.4442 18.065 90.9214 18.4996C91.403 18.9343 91.6459 19.5096 91.6501 20.2255C91.6459 20.8988 91.4456 21.4847 91.0493 21.9833C90.6572 22.4819 90.1203 22.8697 89.4385 23.1466C88.7567 23.4194 87.9768 23.5557 87.099 23.5557C85.697 23.5557 84.5912 23.2681 83.7815 22.6928C82.9761 22.1133 82.5159 21.3377 82.4008 20.3661L85.4882 20.2894C85.5564 20.6473 85.7332 20.9201 86.0187 21.1076C86.3042 21.2951 86.6686 21.3888 87.1118 21.3888C87.5123 21.3888 87.8383 21.3143 88.0898 21.1651C88.3412 21.016 88.469 20.8178 88.4733 20.5706C88.469 20.3491 88.371 20.1722 88.1792 20.0401C87.9875 19.9037 87.6871 19.7972 87.278 19.7205L85.5649 19.3945C84.5805 19.2155 83.8476 18.8853 83.366 18.4037C82.8845 17.9179 82.6459 17.3 82.6501 16.55C82.6459 15.8938 82.8206 15.3334 83.1743 14.8689C83.528 14.4002 84.0308 14.0422 84.6828 13.7951C85.3348 13.5479 86.104 13.4243 86.9903 13.4243C88.3199 13.4243 89.3682 13.7035 90.1352 14.2617C90.9023 14.8157 91.3263 15.5785 91.4072 16.55ZM105.072 15.0223H101.876C101.833 14.6942 101.746 14.3981 101.614 14.1339C101.482 13.8697 101.307 13.6438 101.09 13.4563C100.872 13.2688 100.614 13.126 100.316 13.028C100.022 12.9258 99.6961 12.8746 99.3382 12.8746C98.7032 12.8746 98.1556 13.0302 97.6954 13.3412C97.2394 13.6523 96.8879 14.1019 96.6407 14.69C96.3978 15.278 96.2764 15.9897 96.2764 16.8249C96.2764 17.6942 96.3999 18.4229 96.6471 19.011C96.8985 19.5948 97.2501 20.0358 97.7018 20.3341C98.1578 20.6282 98.6968 20.7752 99.319 20.7752C99.6684 20.7752 99.9859 20.7304 100.271 20.641C100.561 20.5515 100.815 20.4215 101.032 20.251C101.254 20.0763 101.435 19.8654 101.575 19.6182C101.72 19.3668 101.82 19.0834 101.876 18.7681L105.072 18.7873C105.016 19.3668 104.848 19.9378 104.567 20.5003C104.29 21.0628 103.908 21.5763 103.423 22.0408C102.937 22.501 102.345 22.8675 101.646 23.1402C100.951 23.413 100.154 23.5493 99.2551 23.5493C98.0704 23.5493 97.0093 23.2894 96.0718 22.7695C95.1386 22.2454 94.4014 21.4826 93.8602 20.4812C93.319 19.4797 93.0484 18.261 93.0484 16.8249C93.0484 15.3846 93.3232 14.1637 93.873 13.1623C94.4227 12.1608 95.1663 11.4002 96.1038 10.8803C97.0413 10.3604 98.0917 10.1005 99.2551 10.1005C100.048 10.1005 100.781 10.2113 101.454 10.4329C102.127 10.6502 102.72 10.9698 103.231 11.3917C103.742 11.8093 104.158 12.3228 104.477 12.9322C104.797 13.5415 104.995 14.2383 105.072 15.0223ZM111.465 23.5557C110.434 23.5557 109.548 23.3448 108.806 22.9229C108.069 22.4968 107.5 21.9045 107.1 21.1459C106.703 20.3831 106.505 19.4989 106.505 18.4932C106.505 17.4833 106.703 16.5991 107.1 15.8405C107.5 15.0777 108.069 14.4854 108.806 14.0635C109.548 13.6374 110.434 13.4243 111.465 13.4243C112.497 13.4243 113.381 13.6374 114.118 14.0635C114.86 14.4854 115.429 15.0777 115.825 15.8405C116.225 16.5991 116.426 17.4833 116.426 18.4932C116.426 19.4989 116.225 20.3831 115.825 21.1459C115.429 21.9045 114.86 22.4968 114.118 22.9229C113.381 23.3448 112.497 23.5557 111.465 23.5557ZM111.485 21.1971C111.86 21.1971 112.177 21.082 112.437 20.8519C112.697 20.6218 112.895 20.3022 113.032 19.8931C113.172 19.484 113.242 19.011 113.242 18.4741C113.242 17.9286 113.172 17.4513 113.032 17.0422C112.895 16.6331 112.697 16.3135 112.437 16.0834C112.177 15.8533 111.86 15.7383 111.485 15.7383C111.097 15.7383 110.769 15.8533 110.5 16.0834C110.236 16.3135 110.034 16.6331 109.893 17.0422C109.757 17.4513 109.688 17.9286 109.688 18.4741C109.688 19.011 109.757 19.484 109.893 19.8931C110.034 20.3022 110.236 20.6218 110.5 20.8519C110.769 21.082 111.097 21.1971 111.485 21.1971ZM121.613 23.511C120.888 23.511 120.23 23.3235 119.638 22.9485C119.045 22.5735 118.572 22.011 118.219 21.261C117.865 20.511 117.688 19.5799 117.688 18.4677C117.688 17.3128 117.871 16.3625 118.238 15.6168C118.604 14.8711 119.084 14.3192 119.676 13.9613C120.273 13.6033 120.914 13.4243 121.6 13.4243C122.116 13.4243 122.557 13.5138 122.923 13.6928C123.29 13.8675 123.592 14.0934 123.831 14.3704C124.07 14.6473 124.251 14.935 124.374 15.2333H124.438V10.2795H127.564V23.3704H124.47V21.7787H124.374C124.242 22.0813 124.055 22.3647 123.812 22.6289C123.569 22.8931 123.264 23.1062 122.898 23.2681C122.535 23.43 122.107 23.511 121.613 23.511ZM122.699 21.0756C123.079 21.0756 123.403 20.9691 123.671 20.756C123.94 20.5387 124.146 20.234 124.291 19.842C124.436 19.4499 124.508 18.9897 124.508 18.4613C124.508 17.9243 124.436 17.462 124.291 17.0742C124.15 16.6864 123.944 16.3881 123.671 16.1793C123.403 15.9705 123.079 15.8661 122.699 15.8661C122.312 15.8661 121.984 15.9726 121.715 16.1857C121.447 16.3988 121.242 16.6992 121.101 17.087C120.965 17.4748 120.897 17.9329 120.897 18.4613C120.897 18.9897 120.967 19.4499 121.108 19.842C121.248 20.234 121.451 20.5387 121.715 20.756C121.984 20.9691 122.312 21.0756 122.699 21.0756ZM134.13 23.5557C133.103 23.5557 132.217 23.3533 131.471 22.9485C130.729 22.5394 130.158 21.9577 129.758 21.2035C129.362 20.4449 129.163 19.5437 129.163 18.4996C129.163 17.4854 129.364 16.5991 129.764 15.8405C130.165 15.0777 130.729 14.4854 131.458 14.0635C132.187 13.6374 133.046 13.4243 134.034 13.4243C134.733 13.4243 135.372 13.533 135.952 13.7503C136.531 13.9677 137.032 14.2894 137.454 14.7155C137.876 15.1417 138.204 15.6679 138.438 16.2944C138.673 16.9165 138.79 17.6303 138.79 18.4357V19.2155H130.256V17.4002H135.881C135.877 17.0678 135.798 16.7716 135.645 16.5117C135.492 16.2518 135.281 16.0493 135.012 15.9045C134.748 15.7553 134.443 15.6807 134.098 15.6807C133.749 15.6807 133.435 15.7596 133.158 15.9172C132.881 16.0706 132.662 16.2816 132.5 16.55C132.338 16.8143 132.253 17.1147 132.244 17.4513V19.2986C132.244 19.6992 132.323 20.0508 132.481 20.3533C132.639 20.6516 132.862 20.8839 133.152 21.05C133.442 21.2162 133.787 21.2993 134.188 21.2993C134.465 21.2993 134.716 21.261 134.942 21.1843C135.168 21.1076 135.362 20.9947 135.524 20.8455C135.685 20.6964 135.807 20.5131 135.888 20.2958L138.758 20.3789C138.639 21.0223 138.377 21.5827 137.972 22.06C137.571 22.533 137.045 22.9016 136.393 23.1658C135.741 23.4258 134.987 23.5557 134.13 23.5557Z" fill="white"/>
<rect x="0.5" width="38.8889" height="33.3333" fill="white"/>
</svg>
